<svg xmlns="http://www.w3.org/2000/svg" viewBox="0 0 100 140">
  <defs>
    <linearGradient id="grad" x1="0%" y1="0%" x2="100%" y2="100%">
      <stop offset="0%" style="stop-color:#0072ff;stop-opacity:1" />
      <stop offset="100%" style="stop-color:#00c9a7;stop-opacity:1" />
    </linearGradient>
  </defs>
  
  <!-- Main pin shape -->
  <path d="M50 0 C22.4 0 0 22.4 0 50 C0 70 20 95 50 140 C80 95 100 70 100 50 C100 22.4 77.6 0 50 0 Z" fill="url(#grad)"/>
  
  <!-- Top white wave cutout -->
  <path d="M15 25 Q35 15 50 25 Q65 15 85 25 L85 20 Q65 5 50 15 Q35 5 15 20 Z" fill="white"/>
  
  <!-- Bottom white wave cutout -->
  <path d="M25 75 Q40 65 55 75 Q70 65 80 75 L80 70 Q70 55 55 65 Q40 55 25 70 Z" fill="white"/>
</svg>
